<?xml version="1.0" standalone="no"?>
<!DOCTYPE svg PUBLIC "-//W3C//DTD SVG 20010904//EN"
 "http://www.w3.org/TR/2001/REC-SVG-20010904/DTD/svg10.dtd">
<svg version="1.0" xmlns="http://www.w3.org/2000/svg"
 width="612.000000pt" height="792.000000pt" viewBox="0 0 612.000000 792.000000"
 preserveAspectRatio="xMidYMid meet">

<g transform="translate(0.000000,792.000000) scale(0.100000,-0.100000)"
fill="#000000" stroke="none">
<path d="M1540 7736 c0 -24 -50 -480 -53 -483 -2 -1 -78 15 -170 36 -119 26
-167 34 -167 25 0 -7 29 -87 65 -179 36 -91 65 -169 65 -173 0 -4 -72 -41
-161 -82 -88 -41 -162 -77 -165 -81 -2 -3 71 -37 161 -74 l165 -68 -57 -36
c-32 -19 -93 -58 -135 -86 l-77 -51 99 -53 c55 -29 102 -56 105 -61 3 -5 -17
-53 -44 -107 -28 -53 -48 -99 -46 -101 2 -2 48 -13 101 -23 54 -11 99 -21 102
-23 2 -2 -19 -44 -47 -92 -28 -48 -49 -90 -46 -92 2 -2 40 6 84 17 120 31 134
29 164 -21 44 -74 158 -168 204 -168 8 0 13 -12 13 -29 l0 -28 -202 -58 c-112
-31 -206 -60 -210 -64 -4 -3 -43 -123 -86 -266 -44 -143 -123 -400 -175 -571
l-96 -312 19 -563 c15 -461 22 -571 35 -602 13 -31 14 -45 4 -77 -8 -27 -18
-40 -30 -40 -26 0 -52 -42 -98 -157 -65 -161 -73 -146 140 -238 141 -60 183
-75 189 -64 11 17 3 29 -18 29 -16 1 -16 2 1 14 9 7 17 18 17 25 0 6 4 11 10
11 5 0 7 7 4 15 -8 19 5 19 26 0 9 -8 30 -17 47 -21 28 -5 31 -3 46 33 17 43
15 51 -18 63 l-23 9 19 66 c15 57 16 67 4 72 -9 3 -15 19 -15 40 0 19 -7 47
-15 64 -17 31 -12 117 45 794 17 197 19 284 14 610 l-6 380 55 170 c48 146 60
192 43 174 -2 -2 -63 -187 -135 -411 l-132 -406 6 -129 c14 -328 36 -975 33
-978 -1 -2 -50 -5 -108 -7 l-105 -3 -6 180 c-8 217 -17 480 -25 750 l-6 200
102 330 c171 559 240 784 240 792 1 5 7 -5 15 -22 l13 -30 -5 35 -5 35 184 53
c101 28 188 52 193 52 13 0 2 -907 -14 -1150 -41 -645 -189 -1476 -346 -1947
-41 -122 -124 -318 -131 -310 -2 2 5 113 16 248 22 277 22 273 9 239 -6 -14
-12 -63 -15 -110 -3 -47 -11 -158 -19 -248 -8 -89 -15 -169 -15 -177 0 -11 8
-10 43 5 45 20 176 55 181 49 2 -2 9 -357 16 -789 7 -455 15 -786 21 -788 12
-5 11 -119 -1 -162 -15 -48 -14 -168 0 -185 22 -26 227 -69 389 -81 l91 -7 0
25 c0 51 -167 261 -242 305 -24 15 -28 24 -28 60 0 35 3 43 18 43 18 0 19 26
25 578 4 317 7 677 7 800 l0 222 48 0 c27 0 83 -3 124 -6 l75 -7 7 -306 c7
-351 24 -985 30 -1145 3 -70 8 -111 16 -116 8 -5 10 -27 6 -71 -23 -258 -20
-294 19 -309 68 -26 452 -56 471 -37 17 16 -43 105 -135 199 -51 54 -106 103
-122 110 -26 12 -29 18 -29 60 0 41 3 48 20 48 19 0 19 8 15 648 -3 356 -7
700 -9 765 -5 116 -4 117 17 112 142 -32 149 -32 143 -2 -3 12 -7 58 -11 102
-3 44 -14 198 -25 343 -15 188 -18 268 -10 280 8 13 10 14 9 2 -6 -67 25 -85
38 -22 13 60 7 240 -11 324 -11 54 -13 90 -8 116 6 26 1 105 -19 262 -95 766
-91 721 -89 955 1 121 5 378 9 570 4 193 5 355 3 361 -5 17 -95 58 -219 99
l-113 38 0 37 c0 35 2 37 57 60 38 16 77 43 115 82 l57 58 61 0 62 0 -7 76 -7
75 61 -7 c33 -3 61 -3 61 1 0 4 -11 38 -25 76 -22 62 -23 71 -10 96 8 15 15
38 15 49 0 16 22 35 85 75 l85 54 -75 99 c-41 55 -75 102 -75 106 0 3 54 59
120 125 81 80 116 121 108 126 -7 4 -65 26 -129 49 l-117 41 85 177 c47 97 87
183 90 190 6 15 12 16 -169 -29 -64 -16 -123 -29 -131 -29 -12 0 -16 39 -23
216 l-9 215 -160 -190 c-88 -104 -163 -189 -167 -188 -4 1 -80 94 -168 207
-191 242 -190 241 -190 216z m213 -274 l145 -182 109 127 c59 71 128 152 152
181 24 29 46 51 48 48 2 -2 8 -90 12 -195 4 -105 10 -194 14 -197 4 -4 72 8
152 28 80 19 145 34 145 32 0 -2 -38 -83 -85 -180 -47 -97 -84 -179 -82 -180
2 -2 46 -19 98 -38 52 -19 107 -39 123 -46 l30 -11 -117 -117 c-64 -65 -117
-121 -117 -125 0 -4 32 -49 70 -100 39 -50 70 -94 70 -97 0 -3 -34 -26 -74
-52 l-75 -47 -15 24 c-8 12 -29 29 -46 36 -26 12 -30 19 -30 55 0 22 8 56 18
75 25 50 23 144 -6 193 -13 21 -29 69 -37 106 -54 255 -189 359 -455 348 -92
-4 -113 -8 -172 -36 -113 -55 -187 -157 -221 -307 -18 -80 -37 -259 -37 -353
0 -60 -2 -64 -40 -101 -34 -32 -40 -44 -40 -78 0 -50 27 -87 75 -103 23 -8 35
-18 35 -30 0 -11 11 -49 24 -85 l24 -65 -22 0 c-11 0 -52 -9 -91 -20 -38 -10
-71 -18 -72 -17 -1 1 20 40 47 87 55 98 61 88 -77 115 l-92 17 50 96 c27 52
48 100 46 106 -3 6 -46 33 -97 60 -50 26 -88 52 -83 56 4 4 64 45 132 90 l124
82 -162 66 c-128 52 -159 69 -148 77 9 6 79 40 156 75 77 36 141 70 141 75 0
6 -29 85 -65 175 -35 90 -62 166 -60 168 2 2 75 -12 162 -31 87 -19 161 -32
164 -29 3 4 17 112 30 241 l23 234 27 -34 c15 -19 93 -116 172 -217z m230
-346 c100 -30 182 -104 222 -200 l15 -34 -58 29 c-108 55 -261 73 -393 45
-133 -29 -225 -86 -217 -137 2 -20 8 -24 38 -23 19 1 76 16 125 35 80 30 101
33 190 33 88 0 111 -4 190 -33 50 -18 102 -35 118 -38 19 -4 29 -13 33 -32 3
-14 17 -48 30 -75 43 -89 49 -86 -156 -86 -206 0 -200 -3 -155 86 28 56 28 54
17 54 -13 0 -52 -75 -52 -99 0 -11 -4 -21 -10 -21 -5 0 -10 10 -10 21 0 24
-39 99 -52 99 -11 0 -11 2 17 -54 45 -89 51 -86 -155 -86 -206 0 -200 -3 -155
85 25 51 26 73 0 39 -25 -32 -45 -112 -39 -157 24 -183 257 -243 353 -91 16
24 32 66 37 92 l8 47 7 -53 c4 -30 18 -70 32 -91 36 -55 59 -139 55 -208 -2
-46 -7 -58 -21 -61 -13 -3 -25 13 -49 65 -36 78 -36 78 -43 71 -8 -7 41 -117
62 -140 21 -24 50 -23 63 1 14 28 12 110 -4 165 -15 48 -14 48 7 40 12 -4 54
-8 93 -8 62 -1 75 2 107 27 32 24 37 25 37 10 -1 -58 -120 -105 -182 -72 -16
9 -19 8 -16 -2 11 -34 106 -33 166 2 l33 19 -6 -68 c-31 -346 -167 -536 -400
-558 -187 -17 -340 85 -415 278 -48 125 -63 243 -57 463 9 293 47 436 144 533
47 46 124 87 195 102 55 12 191 4 251 -14z m114 -196 c80 -28 127 -60 131 -88
4 -29 -9 -28 -94 4 -175 67 -293 64 -486 -10 -53 -20 -68 -23 -77 -12 -26 31
64 93 177 121 85 22 269 14 349 -15z m-371 -339 c-10 -16 21 -32 48 -25 28 7
34 19 14 27 -7 3 15 6 50 6 71 1 75 -5 43 -74 -22 -50 -69 -91 -121 -106 -75
-23 -164 25 -201 106 -34 73 -32 75 77 75 53 0 93 -4 90 -9z m402 -2 c-5 -21
26 -31 57 -19 28 11 28 13 10 20 -14 6 0 9 44 9 l64 1 -6 -36 c-15 -91 -105
-161 -193 -151 -57 6 -111 47 -141 107 -40 77 -37 80 72 80 64 0 94 -4 93 -11z
m-749 -314 c5 -44 8 -81 6 -83 -10 -10 -64 31 -75 58 -15 36 0 82 34 106 25
17 23 21 35 -81z m955 64 c15 -17 26 -43 26 -59 0 -33 -34 -75 -69 -85 -24 -7
-24 -7 -18 46 4 30 7 71 7 92 0 46 18 49 54 6z m25 -200 l21 -62 -61 7 -60 7
6 -78 7 -78 -46 3 c-25 2 -46 5 -46 6 0 0 11 22 24 47 13 26 31 77 41 114 16
59 21 67 47 72 16 3 31 10 34 14 9 15 12 11 33 -52z m-524 -391 l94 1 -6 -37
c-7 -46 -26 -62 -73 -62 -38 0 -126 26 -135 40 -8 13 7 70 17 64 5 -4 52 -6
103 -6z m-45 -104 c44 -13 63 -15 95 -6 22 6 41 9 44 7 2 -2 9 -32 17 -67 17
-79 31 -335 44 -828 6 -212 17 -457 25 -545 19 -210 19 -235 0 -235 -8 0 -15
7 -15 15 0 8 -5 15 -11 15 -6 0 -9 -7 -5 -15 5 -13 -13 -15 -125 -15 -106 0
-131 3 -135 15 -4 8 -10 15 -15 15 -4 0 -6 -7 -3 -15 4 -10 0 -15 -15 -15 -15
0 -21 6 -21 23 0 12 -5 29 -10 37 -7 11 -10 5 -10 -22 0 -21 -5 -38 -10 -38
-7 0 -9 13 -5 33 41 240 75 889 75 1440 0 179 3 228 13 223 6 -2 37 -12 67
-22z m286 -25 c66 -22 134 -50 152 -61 l34 -21 -6 -316 c-4 -174 -9 -422 -12
-551 l-6 -236 62 -498 c34 -274 60 -499 58 -501 -2 -1 -17 -6 -34 -9 l-32 -7
-6 98 c-4 54 -16 213 -26 353 -11 140 -22 338 -25 440 -7 271 -14 492 -21 690
-5 153 -4 177 10 189 14 12 14 16 1 42 -8 15 -15 50 -15 78 0 27 -4 53 -10 56
-6 4 -10 -9 -10 -32 0 -35 -7 -26 -91 122 -49 88 -94 164 -99 169 -24 24 -5
-19 61 -134 39 -69 91 -160 115 -203 l43 -78 -39 -35 c-21 -19 -50 -44 -64
-55 -14 -11 -26 -25 -26 -30 0 -5 23 -46 51 -92 61 -98 63 -59 -20 -502 -53
-282 -60 -327 -47 -314 3 2 32 153 66 334 33 181 62 331 64 332 2 2 6 -146 10
-329 4 -183 18 -481 31 -663 20 -264 68 -920 111 -1485 l5 -75 -20 43 c-47 99
-103 310 -151 572 -87 470 -172 1284 -184 1765 -3 116 -8 311 -12 435 -6 254
-18 408 -38 493 -7 31 -10 57 -6 57 4 0 61 -18 126 -41z m124 -571 l0 -113
-45 70 c-24 39 -45 73 -45 77 0 9 72 77 83 78 4 0 7 -51 7 -112z m-900 -1187
c-11 -141 -27 -346 -35 -456 -9 -110 -17 -207 -18 -215 -1 -9 -12 0 -26 23
-14 22 -20 44 -16 55 7 19 7 219 0 357 -2 50 -10 252 -16 450 l-12 360 69 214
69 215 3 -374 c2 -303 -2 -422 -18 -629z m636 65 c3 -13 4 -37 2 -52 -3 -29
-3 -29 -80 -32 l-78 -3 0 56 0 55 75 0 c70 0 75 -1 81 -24z m113 -133 c-1 -16
-3 -21 -6 -12 -2 9 -16 19 -31 21 -39 6 -333 0 -340 -7 -3 -3 23 -5 58 -5 35
0 60 -3 57 -7 -13 -12 -120 -2 -135 14 -21 20 -32 1 -32 -59 0 -25 -5 -48 -11
-50 -5 -2 -11 -37 -12 -81 -1 -42 -5 -69 -9 -59 -5 14 -7 13 -7 -5 -1 -13 4
-23 9 -23 6 0 10 -7 10 -15 0 -9 -6 -12 -17 -8 -13 5 -15 2 -10 -11 4 -10 7
-23 8 -29 0 -7 4 -3 9 8 l9 20 0 -20 c0 -11 -7 -29 -16 -40 -15 -20 -15 -20
-10 1 2 12 1 28 -4 35 -6 10 -9 5 -9 -15 0 -16 -2 -27 -5 -24 -3 3 9 94 26
202 l32 196 219 0 218 0 -1 -27z m-208 -8 c0 -5 -5 -11 -13 -13 -10 -3 -10 -1
1 6 11 8 10 11 -5 15 -16 5 -16 6 -1 4 10 -1 18 -6 18 -12z m83 -3 c2 -4 -11
-6 -30 -4 -19 2 -34 6 -34 8 0 8 59 4 64 -4z m86 -2 c0 -3 -15 -6 -34 -6 -19
0 -32 4 -30 8 6 9 64 7 64 -2z m-355 -10 c8 -12 -5 -80 -15 -80 -4 0 -7 20 -6
45 1 43 8 56 21 35z m399 -32 c3 -13 19 -140 36 -283 18 -143 34 -276 37 -295
3 -19 2 -32 -1 -29 -4 4 -12 38 -17 75 -5 38 -14 73 -19 78 -6 6 -10 15 -10
20 0 6 5 4 11 -4 8 -11 9 -8 4 15 -4 17 -9 50 -11 75 -3 25 -10 57 -15 72 -6
14 -10 37 -8 50 1 12 -2 41 -6 63 -8 37 -9 38 -16 15 -6 -23 -7 -23 -8 -3 -1
12 3 24 8 27 11 7 10 106 -1 106 -4 0 -8 9 -8 20 0 27 19 25 24 -2z m-19 -61
c-1 -19 -7 -42 -12 -52 -6 -10 -9 -34 -8 -54 1 -20 1 -28 -2 -18 -2 9 -12 17
-21 16 -11 0 -12 -3 -4 -6 6 -2 12 -9 12 -15 0 -7 -5 -7 -14 1 -8 7 -26 8 -47
4 l-34 -8 40 -6 c38 -6 38 -6 8 -8 l-33 -1 0 -120 c0 -95 3 -120 14 -120 10 0
16 -21 21 -76 4 -41 4 -78 1 -81 -3 -4 -6 12 -6 35 0 24 -5 42 -11 42 -6 0 -8
-7 -5 -16 3 -9 6 -45 6 -80 0 -49 3 -64 14 -64 8 0 17 -8 20 -17 3 -10 4 45 3
122 -2 77 -2 121 0 98 3 -24 7 -43 11 -43 4 0 7 -53 7 -119 0 -98 -2 -115 -13
-102 -11 14 -12 11 -6 -19 3 -19 9 -37 13 -40 3 -3 3 -25 0 -50 l-6 -45 -1 48
c-1 29 -6 46 -12 42 -5 -3 -10 -1 -10 4 0 6 -5 11 -11 11 -6 0 -9 -8 -7 -17 2
-10 10 -17 16 -15 8 1 12 -16 10 -55 l-1 -58 -7 50 c-5 40 -8 44 -10 20 -2
-16 -3 -39 -2 -50 6 -66 7 -227 2 -230 -3 -2 -14 197 -24 443 -9 246 -19 470
-22 499 -6 51 -6 52 22 58 59 13 84 28 89 51 3 13 7 35 10 49 7 35 12 31 10
-8z m-252 6 c-7 -2 -19 -2 -25 0 -7 3 -2 5 12 5 14 0 19 -2 13 -5z m210 -7
c27 -21 21 -31 -31 -49 -39 -14 -66 -16 -145 -11 l-97 7 0 -109 c0 -122 -12
-161 -29 -98 -14 51 -13 66 3 31 12 -27 12 -26 12 22 -1 53 -11 68 -19 29 -3
-13 -4 -6 -4 15 1 20 6 37 12 37 7 0 11 15 10 36 0 22 5 39 15 44 13 8 13 9 0
10 -9 0 -21 -5 -27 -11 -8 -8 -11 -4 -10 13 2 23 4 24 32 14 17 -6 32 -14 35
-17 11 -12 215 -4 235 9 l20 14 -20 -8 c-11 -3 -54 -8 -95 -9 -41 -1 -52 -1
-25 1 66 5 95 12 95 23 0 6 -10 12 -22 14 -18 3 -16 5 7 5 17 1 38 -5 48 -12z
m-237 -12 c19 -15 19 -15 -1 -6 -11 5 -26 7 -32 5 -7 -3 -13 0 -13 6 0 16 23
13 46 -5z m153 12 c-2 -2 -31 -6 -64 -9 -39 -4 -50 -3 -30 2 31 9 102 14 94 7z
m-31 -91 c5 -5 51 -1045 52 -1174 l0 -94 -117 7 c-65 4 -118 8 -119 9 -3 3 47
1251 51 1263 2 8 22 8 66 2 34 -4 65 -10 67 -13z m129 -127 c-3 -8 -6 -5 -6 6
-1 11 2 17 5 13 3 -3 4 -12 1 -19z m40 0 c-3 -8 -6 -5 -6 6 -1 11 2 17 5 13 3
-3 4 -12 1 -19z m-450 -60 c-3 -8 -6 -5 -6 6 -1 11 2 17 5 13 3 -3 4 -12 1
-19z m-42 -56 c2 -40 0 -51 -7 -37 -6 15 -7 13 -4 -11 3 -18 -1 -40 -9 -52
-23 -32 -38 -117 -26 -141 7 -13 8 -22 1 -26 -6 -3 -10 4 -10 16 0 12 -3 20
-6 16 -10 -10 5 -59 16 -52 6 3 7 -1 4 -10 -5 -13 -9 -13 -18 -3 -6 7 -10 12
-10 10 1 -3 -19 -87 -41 -165 -9 -32 -13 -63 -9 -69 5 -7 2 -8 -7 -3 -12 7
-12 6 -1 -7 13 -16 14 -90 2 -83 -4 2 -7 -9 -7 -25 0 -16 4 -27 9 -24 4 3 8 0
8 -5 0 -6 -4 -11 -10 -11 -15 0 -13 -323 2 -338 8 -8 8 -12 1 -12 -20 0 -23
31 -23 263 l0 232 39 155 c21 85 51 221 66 303 16 81 30 145 33 142 3 -3 6
-31 7 -63z m795 59 c0 -5 -11 -11 -25 -13 -17 -4 -25 -1 -25 8 0 8 11 14 25
14 14 0 25 -4 25 -9z m-773 -23 c-3 -8 -6 -5 -6 6 -1 11 2 17 5 13 3 -3 4 -12
1 -19z m117 -504 c-10 -266 -22 -484 -26 -484 -10 0 -7 253 3 260 4 3 10 120
12 260 3 140 8 266 12 280 5 20 5 22 -5 10 -10 -12 -11 -12 -4 5 4 11 8 47 9
80 l2 60 -7 -50 c-7 -48 -7 -47 -7 21 1 62 3 70 15 57 13 -12 12 -78 -4 -499z
m667 401 c19 -94 24 -256 8 -310 -5 -19 -7 9 -4 77 5 115 -9 156 -21 61 -13
-106 -21 -98 -28 28 -4 68 -10 150 -13 182 -6 57 -5 59 17 55 20 -3 25 -13 41
-93z m-764 53 c-3 -7 -5 -2 -5 12 0 14 2 19 5 13 2 -7 2 -19 0 -25z m-10 -88
c-16 -43 -31 -38 -21 8 4 20 7 51 7 67 -1 29 -1 29 12 -7 11 -29 11 -44 2 -68z
m-397 56 c0 -9 -21 -15 -67 -19 -103 -10 -123 -9 -123 8 0 10 16 15 63 18 34
2 77 4 95 5 21 1 32 -3 32 -12z m-3 -53 c4 -10 22 -43 41 -73 48 -76 53 -100
36 -168 -17 -63 -105 -255 -123 -266 -21 -13 -11 29 34 138 44 108 55 156 35
156 -5 0 -10 -6 -10 -14 0 -26 -71 -154 -111 -200 -34 -39 -69 -60 -69 -41 0
2 29 60 65 128 36 68 65 132 65 141 0 29 -22 13 -39 -30 -35 -88 -107 -194
-131 -194 -19 0 -10 31 35 120 42 84 56 142 37 154 -5 3 -19 -20 -32 -51 -33
-79 -70 -144 -87 -150 -31 -12 -28 -2 51 169 18 39 24 65 20 86 -3 17 -1 46 5
65 13 40 23 44 114 46 47 1 59 -2 64 -16z m912 -23 c0 -10 -3 -8 -9 5 -12 27
-12 43 0 25 5 -8 9 -22 9 -30z m-3 -106 c-19 -19 -21 -11 -4 16 7 11 14 16 16
10 2 -5 -4 -17 -12 -26z m52 -71 c6 -43 21 -129 32 -192 16 -93 20 -156 20
-352 0 -148 -4 -239 -10 -239 -5 0 -7 -7 -4 -15 4 -8 10 -12 15 -9 13 8 11
-1021 -2 -1066 -7 -24 -7 -69 -1 -145 l10 -110 -4 122 c-2 73 0 124 6 128 6 4
10 -70 10 -205 l0 -211 -112 3 -113 3 -7 245 c-4 135 -8 399 -10 587 -2 188
-6 334 -10 325 -4 -9 -7 70 -7 176 0 125 4 192 11 192 6 0 8 -11 4 -26 -5 -17
-3 -23 4 -19 13 8 13 -1 -2 -42 -9 -25 -9 -44 -1 -80 22 -92 23 -103 14 -103
-6 0 -12 19 -14 43 l-4 42 -1 -41 c-1 -27 3 -46 13 -54 20 -17 19 -31 -1 -23
-14 5 -15 2 -8 -18 5 -13 9 -45 9 -71 0 -25 3 -50 7 -54 4 -4 3 -13 -3 -20 -7
-8 -7 -14 1 -19 5 -3 10 -18 9 -33 0 -24 -1 -25 -9 -7 -12 28 -12 -1 -1 -43 6
-20 6 -30 0 -27 -5 4 -9 -1 -9 -9 0 -9 6 -16 13 -17 10 0 10 -2 0 -6 -14 -5
-18 -33 -5 -33 4 0 8 -186 10 -413 1 -290 5 -413 13 -416 8 -2 7 -6 -2 -12 -7
-4 -10 -11 -7 -14 4 -4 12 -4 19 0 6 5 41 9 78 10 58 3 60 2 21 -5 -37 -6 -40
-7 -14 -8 17 -1 45 1 62 4 30 6 30 8 34 70 3 58 -5 76 -14 30 -6 -39 -1 431 7
503 5 55 4 72 -4 66 -7 -4 -9 -16 -5 -28 4 -14 3 -18 -3 -12 -5 6 -7 81 -4
180 l6 170 6 -145 c3 -99 5 -54 5 142 -1 159 -4 288 -8 288 -5 0 -8 7 -8 16 0
8 5 12 10 9 6 -4 10 15 10 50 0 42 -5 61 -20 77 -14 15 -17 25 -10 39 13 23
13 32 0 24 -6 -3 -7 1 -4 9 3 9 10 16 15 16 5 0 9 10 8 23 0 21 -1 21 -9 2 -9
-22 -10 -21 -14 13 -2 16 2 21 11 18 19 -8 18 179 -1 216 -9 18 -11 28 -4 30
8 3 8 10 0 24 -6 12 -8 32 -4 45 6 22 7 21 13 -11 3 -22 6 -3 6 50 0 47 -2 76
-6 66 -7 -17 -8 -18 -14 -3 -3 9 -2 17 3 17 6 0 10 14 10 31 0 16 -3 28 -7 26
-5 -3 -9 14 -9 38 -1 24 -8 53 -17 65 -9 13 -14 37 -11 63 3 36 2 38 -5 12 -6
-22 -7 -8 -7 47 1 43 3 78 6 78 3 0 11 -35 18 -77z m-34 -105 c8 -57 -5 -63
-23 -11 -10 26 -11 38 -3 41 8 2 10 25 7 65 l-4 62 9 -55 c4 -30 11 -76 14
-102z m-623 23 c-4 -29 -14 -58 -21 -64 -10 -10 -11 -7 -6 13 4 14 12 44 18
68 14 59 19 48 9 -17z m26 -63 c-3 -8 -6 -5 -6 6 -1 11 2 17 5 13 3 -3 4 -12
1 -19z m-555 -28 c-12 -29 -21 -38 -32 -33 -8 3 -25 7 -37 7 -27 1 -29 9 -8
26 8 7 15 8 15 2 0 -5 9 -12 21 -15 12 -3 19 -3 16 -1 -4 4 33 53 40 54 1 0
-6 -18 -15 -40z m165 -73 c-8 -24 -18 -37 -29 -37 -10 0 -18 2 -18 6 0 6 53
74 56 71 2 -1 -3 -19 -9 -40z m849 -55 c-3 -21 -2 -53 3 -70 5 -17 6 -34 2
-37 -11 -6 -21 70 -14 111 3 19 8 34 11 34 2 0 2 -17 -2 -38z m21 1 c-3 -10
-5 -4 -5 12 0 17 2 24 5 18 2 -7 2 -21 0 -30z m-612 -435 c-5 -4 -19 -8 -30
-8 -11 0 -50 -11 -87 -24 -38 -12 -68 -22 -68 -22 0 1 20 41 44 89 24 49 65
154 92 235 l49 147 5 -205 c3 -131 1 -208 -5 -212z m795 402 c0 -5 -2 -10 -4
-10 -3 0 -8 5 -11 10 -3 6 -1 10 4 10 6 0 11 -4 11 -10z m110 -285 c12 -38 33
-92 46 -119 13 -27 22 -51 20 -53 -2 -2 -33 2 -70 8 l-66 12 1 196 1 196 22
-85 c13 -47 33 -116 46 -155z m-672 90 l-1 -40 -8 45 c-4 25 -7 65 -7 90 l1
45 7 -50 c5 -27 8 -68 8 -90z m379 43 c-3 -7 -5 -2 -5 12 0 14 2 19 5 13 2 -7
2 -19 0 -25z m-31 -15 c1 -21 4 -49 8 -63 5 -20 5 -21 -3 -5 -6 14 -8 2 -6
-40 5 -117 5 -114 21 -75 13 33 14 33 9 5 -4 -16 -13 -35 -20 -41 -8 -6 -12
-14 -8 -17 3 -4 13 -1 22 6 14 11 14 10 2 -5 -7 -10 -20 -18 -27 -18 -11 0
-14 28 -14 138 0 114 4 152 14 152 1 0 1 -17 2 -37z m-319 -45 c-3 -8 -6 -5
-6 6 -1 11 2 17 5 13 3 -3 4 -12 1 -19z m532 -88 c-1 -88 -7 -75 -11 27 -2 40
0 67 4 60 4 -7 7 -46 7 -87z m-192 3 c-3 -10 -5 -4 -5 12 0 17 2 24 5 18 2 -7
2 -21 0 -30z m-380 -45 c-3 -7 -5 -2 -5 12 0 14 2 19 5 13 2 -7 2 -19 0 -25z
m27 -15 c-4 -10 -11 -63 -14 -118 l-6 -100 -2 98 c-1 63 2 104 10 117 16 25
23 26 12 3z m36 -4 c0 -5 -4 -9 -10 -9 -5 0 -10 7 -10 16 0 8 5 12 10 9 6 -3
10 -10 10 -16z m-5 -976 l-7 -643 -92 -1 c-50 0 -98 -2 -107 -4 -14 -2 -17 31
-22 309 -15 710 -20 1246 -11 1246 5 0 10 -239 12 -573 2 -341 7 -573 13 -575
5 -2 9 -86 9 -195 l0 -192 75 0 75 0 0 30 c0 30 0 30 -50 27 -62 -5 -66 -22
-5 -22 25 0 45 -5 45 -10 0 -7 -26 -10 -66 -9 l-67 2 7 86 c4 47 9 130 13 184
3 53 10 97 14 97 10 0 15 -124 11 -242 l-3 -78 45 0 c41 0 46 3 47 23 1 21 1
21 8 -3 8 -26 17 30 25 160 2 30 2 6 0 -55 -2 -60 -6 -128 -8 -150 -3 -33 -2
-34 2 -5 l6 35 6 -40 c4 -22 5 39 4 135 -1 96 -6 204 -11 240 -6 37 -7 167 -3
305 l6 240 3 -285 c2 -157 5 -278 7 -270 7 35 10 780 3 768 -5 -7 -9 30 -10
87 -2 95 -2 93 -10 -50 -13 -244 -17 -262 -12 -59 3 104 8 206 12 225 8 33 8
33 15 -21 3 -30 8 -77 10 -105 1 -27 1 32 -2 132 -3 100 -1 190 4 200 14 28
16 -233 9 -944z m332 885 c-3 -7 -5 -2 -5 12 0 14 2 19 5 13 2 -7 2 -19 0 -25z
m-6 -91 c-10 -9 -11 -8 -5 6 3 10 9 15 12 12 3 -3 0 -11 -7 -18z m186 -179
c-3 -8 -6 -5 -6 6 -1 11 2 17 5 13 3 -3 4 -12 1 -19z m2 -39 c1 13 3 22 5 20
2 -2 0 -49 -4 -104 -7 -96 -7 -97 -8 -29 -1 39 -4 87 -7 105 -4 29 -3 30 4 9
l9 -25 1 24z m-538 -132 c-4 -61 -11 -59 -11 3 0 29 3 50 7 46 4 -4 6 -26 4
-49z m526 -244 c-2 -32 -3 -6 -3 57 0 63 1 89 3 58 2 -32 2 -84 0 -115z m13
-283 c0 -43 -3 -81 -7 -83 -5 -3 -8 35 -8 83 0 48 3 86 8 83 4 -2 7 -40 7 -83z
m-563 28 c-2 -13 -4 -5 -4 17 -1 22 1 32 4 23 2 -10 2 -28 0 -40z m-1 -230
c-5 -33 -4 -38 4 -23 9 18 10 17 5 -5 -2 -14 -5 -60 -5 -103 0 -50 -4 -76 -10
-72 -11 7 -14 185 -4 223 10 37 16 25 10 -20z m560 -115 c-11 -11 -17 4 -9 23
7 18 8 18 11 1 2 -10 1 -21 -2 -24z m4 -23 c0 -5 -5 -10 -11 -10 -5 0 -7 5 -4
10 3 6 8 10 11 10 2 0 4 -4 4 -10z m3 -150 c4 0 7 -4 7 -9 0 -9 -127 -3 -147
8 -7 4 20 6 60 4 39 -1 75 -3 80 -3z m3 -122 c-4 -29 -12 -56 -18 -59 -19 -12
-95 -20 -122 -13 -24 6 -26 10 -26 65 l0 59 86 0 87 0 -7 -52z m-561 12 c3
-10 3 -34 0 -53 -7 -35 -28 -48 -104 -67 -54 -14 -61 -6 -61 71 l0 69 79 0
c70 0 80 -2 86 -20z"/>
<path d="M1510 6439 c0 -22 69 -85 112 -104 42 -17 118 -20 118 -5 0 6 -23 10
-51 10 -60 0 -103 23 -149 78 -18 21 -30 30 -30 21z"/>
<path d="M1622 6049 c-32 -29 -29 -77 4 -89 27 -11 77 -3 69 10 -2 4 -16 5
-30 2 -25 -4 -55 12 -55 30 0 5 11 20 24 33 30 30 18 43 -12 14z"/>
<path d="M2104 6040 c32 -38 25 -60 -20 -60 -19 0 -34 -4 -34 -10 0 -14 64
-12 78 2 19 19 14 53 -11 76 -34 32 -43 27 -13 -8z"/>
<path d="M1711 6040 c-29 -4 -58 -14 -65 -20 -9 -10 -3 -11 24 -6 102 20 117
19 123 -3 6 -24 45 -29 65 -9 9 9 12 4 12 -23 0 -48 23 -78 47 -63 10 6 19 21
21 33 3 15 8 21 19 17 21 -9 53 12 53 34 0 22 29 27 60 10 11 -6 21 -6 24 -1
12 19 -63 33 -194 36 -74 2 -159 0 -189 -5z m129 -25 c-7 -8 -16 -15 -21 -15
-5 0 -9 7 -9 15 0 9 9 15 21 15 18 0 19 -2 9 -15z m160 6 c0 -21 -13 -41 -26
-41 -8 0 -14 5 -14 10 0 6 -6 10 -14 10 -8 0 -17 -15 -20 -35 -6 -33 -19 -45
-29 -27 -3 4 -8 26 -12 50 l-7 42 61 0 c34 0 61 -4 61 -9z"/>
<path d="M1780 5935 c-16 -20 -5 -45 20 -45 16 0 20 7 20 30 0 33 -19 40 -40
15z m30 -14 c0 -6 -4 -13 -10 -16 -5 -3 -10 1 -10 9 0 9 5 16 10 16 6 0 10 -4
10 -9z"/>
<path d="M1925 3560 c-13 -5 -14 -9 -5 -9 8 0 24 4 35 9 13 5 14 9 5 9 -8 0
-24 -4 -35 -9z"/>
<path d="M1950 2997 c0 -14 -3 -32 -6 -41 -4 -10 -1 -16 9 -16 13 0 15 8 10
38 -7 45 -13 54 -13 19z"/>
<path d="M1422 2760 c0 -14 2 -19 5 -12 2 6 2 18 0 25 -3 6 -5 1 -5 -13z"/>
<path d="M2180 2194 c0 -8 5 -12 10 -9 6 4 8 11 5 16 -9 14 -15 11 -15 -7z"/>
<path d="M1983 1560 c0 -25 2 -35 4 -22 2 12 2 32 0 45 -2 12 -4 2 -4 -23z"/>
<path d="M1500 922 c0 -23 -5 -42 -10 -42 -6 0 -10 -23 -9 -55 1 -30 5 -55 9
-55 9 0 23 180 15 188 -3 3 -5 -13 -5 -36z"/>
<path d="M3187 6049 c-26 -4 -96 -28 -155 -53 -59 -24 -129 -50 -157 -57 -81
-19 -154 -57 -170 -89 -8 -15 -57 -68 -110 -116 -79 -73 -99 -97 -116 -144
-36 -96 -52 -204 -47 -330 5 -131 19 -174 101 -293 26 -38 47 -80 47 -93 0
-27 49 -84 72 -84 7 0 28 -23 47 -51 19 -28 65 -78 102 -113 l67 -62 -28 -38
c-59 -78 -100 -222 -115 -401 -4 -44 -9 -91 -11 -105 -2 -14 -7 -89 -11 -167
-6 -141 -6 -143 15 -143 11 0 23 -4 26 -8 7 -12 15 -185 27 -632 l12 -405 -32
-98 c-33 -103 -43 -213 -18 -204 7 2 16 -12 22 -37 8 -31 15 -41 30 -41 11 0
21 -8 23 -18 2 -9 9 -17 17 -17 10 0 15 -30 20 -115 13 -212 9 -821 -8 -1135
-21 -380 -21 -370 -1 -370 13 0 15 -8 10 -47 -3 -27 -9 -85 -12 -129 -6 -79
-6 -82 18 -98 45 -29 349 -79 361 -59 16 26 -103 210 -169 262 -29 23 -33 61
-5 61 23 0 18 -42 71 550 30 335 44 551 54 871 13 365 17 431 32 463 43 90 55
20 79 -459 4 -66 10 -181 16 -255 6 -94 4 -254 -6 -530 -22 -602 -22 -594 2
-598 20 -3 20 -5 7 -75 -15 -79 -18 -195 -6 -215 19 -29 369 -70 385 -45 13
20 -50 118 -126 199 -59 62 -78 89 -75 106 2 15 9 22 21 20 13 -2 17 4 17 26
0 15 16 237 35 493 27 369 35 534 37 807 2 274 6 341 16 337 7 -2 17 5 22 18
8 21 9 21 9 -5 1 -42 31 -37 32 5 0 29 1 30 9 10 17 -43 40 -21 40 38 0 22 4
27 17 22 14 -6 15 0 10 49 -3 30 -22 108 -42 173 l-37 118 7 491 c6 422 9 493
22 503 17 13 14 115 -13 433 -17 193 -33 271 -71 343 -15 26 -24 48 -22 50 2
2 35 25 72 51 111 78 184 188 220 332 19 72 42 262 40 325 -2 50 -31 118 -67
154 -12 12 -36 44 -53 71 -28 44 -31 57 -31 127 0 87 -26 156 -68 183 -13 9
-48 46 -78 84 -61 75 -107 102 -231 138 -87 25 -136 30 -198 21z m173 -279
c109 -26 251 -96 314 -153 l49 -45 -62 5 c-42 4 -61 2 -61 -6 0 -6 17 -11 40
-11 56 0 103 -22 130 -61 22 -30 22 -32 4 -25 -52 22 -113 19 -169 -9 -64 -31
-101 -74 -121 -141 -26 -87 -10 -168 48 -238 81 -98 242 -100 323 -4 l25 30 0
-27 c0 -59 -34 -185 -70 -260 -66 -137 -198 -245 -378 -308 -77 -28 -99 -31
-197 -31 -126 0 -203 18 -305 69 -75 38 -158 109 -209 179 -32 46 -32 48 -12
53 28 7 17 21 -12 16 -35 -7 -82 21 -97 57 -11 27 -11 37 3 66 9 19 28 40 42
46 14 6 25 15 25 20 0 12 -13 10 -38 -8 -12 -8 -22 -12 -22 -7 0 4 -5 39 -10
77 -20 137 21 315 102 443 53 84 152 172 248 222 138 72 257 87 410 51z m413
-315 c19 -8 51 -33 70 -55 123 -144 32 -371 -149 -374 -143 -2 -247 170 -188
312 19 46 69 100 109 118 40 18 114 17 158 -1z m-832 -926 c71 -36 184 -59
288 -59 105 0 184 16 270 55 29 14 57 22 62 19 20 -12 60 -107 74 -175 16 -77
45 -419 45 -541 l0 -76 -32 -11 c-17 -6 -32 -10 -33 -9 -1 2 -5 75 -8 163 -10
245 -19 365 -29 372 -6 3 -8 -20 -4 -58 7 -82 26 -1412 21 -1418 -13 -12 -205
-18 -417 -13 l-238 5 0 76 c0 170 31 826 39 829 36 12 39 25 44 235 3 124 2
207 -4 207 -5 0 -9 -39 -9 -87 0 -115 -11 -327 -17 -333 -11 -12 -182 -10
-228 3 l-50 14 3 89 c4 156 32 421 52 500 31 121 90 234 122 234 5 0 27 -9 49
-21z m714 -891 c-3 -46 -7 -264 -10 -485 l-5 -403 39 -128 c44 -145 55 -192
47 -192 -3 0 -11 20 -17 45 -19 75 -28 61 -24 -37 l4 -93 -14 84 c-20 125 -37
128 -31 6 4 -88 4 -92 -4 -33 -20 156 -39 170 -34 26 2 -75 1 -84 -6 -48 -12
64 -12 387 0 395 6 4 10 171 10 469 0 254 3 466 7 469 3 4 14 7 24 7 16 0 18
-8 14 -82z m-706 36 c2 -2 -5 -225 -16 -496 -17 -439 -18 -506 -5 -607 10 -80
11 -123 4 -145 -9 -29 -10 -27 -11 27 -1 41 -5 57 -15 57 -18 0 -25 -30 -27
-120 l-2 -75 -12 90 c-14 107 -24 96 -34 -37 l-7 -93 -8 57 c-5 31 -6 77 -4
102 2 28 -1 45 -7 43 -5 -2 -11 -40 -13 -85 -2 -45 -7 -82 -12 -82 -10 0 -25
124 -15 139 3 6 3 17 -2 24 -5 7 -12 -6 -20 -38 l-13 -50 6 50 c3 28 19 89 35
136 l29 86 -15 474 c-8 261 -15 493 -15 517 l0 42 88 -6 c48 -4 89 -8 91 -10z
m511 -3042 c0 -25 -6 -31 -39 -40 -21 -7 -52 -12 -70 -12 -30 0 -31 2 -31 40
l0 40 70 0 70 0 0 -28z m-489 -12 c31 0 39 -4 39 -18 0 -21 -77 -62 -115 -62
-23 0 -25 4 -25 46 l0 47 31 -7 c17 -3 49 -6 70 -6z m563 -101 c65 -70 134
-175 122 -186 -8 -8 -242 15 -301 30 -47 11 -50 14 -56 52 -4 22 -4 66 -1 98
l5 59 31 -6 c17 -3 52 0 76 8 25 8 48 14 52 15 3 1 36 -31 72 -70z m-474 -1
c41 -41 120 -154 133 -190 5 -15 0 -18 -32 -18 -43 0 -248 35 -284 49 -31 12
-41 53 -32 119 6 47 7 48 38 44 19 -1 47 5 67 16 51 28 62 26 110 -20z"/>
<path d="M3073 5542 c-34 -42 -130 -97 -189 -108 -19 -3 -34 -10 -34 -15 0
-11 -5 -11 58 5 29 8 71 26 95 39 51 31 111 91 105 107 -2 6 -18 -6 -35 -28z"/>
<path d="M3039 5445 c-150 -78 -171 -295 -39 -408 121 -103 307 -50 358 102
18 52 14 150 -7 196 -55 119 -198 169 -312 110z m156 4 c116 -32 184 -156 155
-280 -17 -68 -97 -154 -154 -165 -173 -32 -304 122 -255 300 15 55 82 123 138
140 57 18 67 18 116 5z"/>
<path d="M3169 5288 c-21 -39 26 -63 65 -33 17 13 18 15 3 15 -9 0 -17 6 -17
14 0 23 -39 27 -51 4z"/>
<path d="M3496 5032 c5 -4 26 -20 47 -36 66 -49 42 -90 -41 -67 -56 15 -66 7
-17 -13 53 -23 82 -20 101 9 22 34 10 60 -40 90 -41 24 -70 34 -50 17z"/>
<path d="M3505 4783 c6 -59 -4 -91 -24 -79 -6 4 -11 14 -11 22 0 8 -4 14 -10
14 -5 0 -10 -17 -10 -38 0 -39 -22 -83 -36 -70 -4 4 -9 30 -12 58 -2 27 -9 50
-14 50 -14 0 1 -102 16 -118 18 -19 46 -4 53 29 4 22 11 29 28 29 13 0 26 7
29 16 10 27 7 144 -4 144 -7 0 -9 -20 -5 -57z"/>
<path d="M3714 5295 c-10 -20 -8 -25 10 -35 17 -8 28 -8 48 3 l27 14 -22 18
c-31 28 -50 28 -63 0z"/>
<path d="M1546 5390 c-49 -144 -87 -262 -85 -264 2 -2 29 -19 61 -38 l56 -34
-64 -106 -65 -107 60 -402 c54 -363 71 -455 71 -390 0 12 -25 187 -55 388 -30
202 -55 375 -55 386 0 11 29 68 64 128 46 77 61 111 53 117 -7 5 -33 21 -59
36 -27 15 -48 31 -48 35 0 5 38 121 85 257 95 278 88 254 77 254 -4 0 -47
-117 -96 -260z"/>
</g>
</svg>
